<svg width="100%" height="100%" xmlns="http://www.w3.org/2000/svg" xmlns:xlink="http://www.w3.org/1999/xlink"
    overflow="hidden">
    <defs>
        <clipPath id="clip0">
            <rect x="13" y="509" width="171" height="65"></rect>
        </clipPath>
    </defs>
    <g clip-path="url(#clip0)" transform="scale(0.325) translate(-13 -460)" style="padding-top: 30%;">
        <path
            d="M64.1487 510.018C68.9655 509.915 73.7823 510.25 78.5991 511.062 97.8662 514.189 117.133 524.946 136.4 531.26 150.851 536.085 165.301 538.412 179.751 537.955L183 537.641 183 572.63 179.751 572.943C165.301 573.401 150.851 571.074 136.4 566.249 117.133 559.934 97.8662 549.178 78.5991 546.051 59.332 542.804 40.0649 547.186 20.7977 556.688L13.0568 561.009 13.0568 560.999 13 560.999 13 526.052 20.7977 521.699C35.2481 514.573 49.6984 510.326 64.1487 510.018Z"
             fill-rule="evenodd"></path>
    </g>
</svg>