<svg width="203" height="496" xmlns="http://www.w3.org/2000/svg" xmlns:xlink="http://www.w3.org/1999/xlink" overflow="hidden"><defs><clipPath id="clip0"><path d="M64 112 267 112 267 608 64 608Z" fill-rule="evenodd" clip-rule="evenodd"/></clipPath></defs><g clip-path="url(#clip0)" transform="translate(-64 -112)"><path d="M69.76 128.71C67.0098 137.318 64.8898 144.48 65.0045 144.601 65.119 144.781 75.547 148.513 88.1521 152.968 163.669 179.693 198.849 195.523 219.991 212.377 228.127 218.878 233.914 226.041 233.914 229.713 233.914 231.579 229.044 237.839 223.773 242.774 215.808 250.238 206.469 257.221 178.91 276.422 142.068 302.124 130.781 311.333 121.212 323.251 116.227 329.511 112.102 337.156 110.44 343.235 109.123 348.051 109.123 357.079 110.44 361.895 114.623 376.822 126.254 389.282 149.918 404.33 153.699 406.678 163.726 412.577 172.263 417.392 202.974 434.727 211.053 439.603 219.59 446.104 225.835 450.799 231.966 457.119 233.112 460.068 235.461 465.967 230.935 478.848 221.996 491.609 208.245 511.232 184.868 533.262 138.057 570.701 131.526 575.938 126.025 580.453 125.853 580.814 125.28 581.777 144.016 607.298 145.105 606.997 146.136 606.757 168.596 588.819 183.207 576.6 234.602 533.683 257.979 504.791 264.224 476.681 268.406 457.841 264.51 444.177 250.874 429.912 240.102 418.596 228.299 410.65 191.228 389.884 159.945 372.308 146.766 362.978 142.469 355.213L140.979 352.625 142.641 349.495C143.5 347.75 146.193 344.258 148.543 341.791 157.252 332.521 165.502 326.201 198.791 303.027 237.123 276.362 248.983 266.37 257.635 253.669 263.364 245.242 266 237.598 266 229.472 266 210.993 251.561 191.912 224.804 175.239 199.479 159.408 165.158 144.661 100.471 121.788 86.8343 116.973 75.4323 113 75.2032 113 74.9167 113 72.5103 120.042 69.76 128.71Z" fill="#404040" fill-rule="evenodd"/></g></svg>